<?xml version="1.0" encoding="UTF-8"?>
<!DOCTYPE svg PUBLIC "-//W3C//DTD SVG 1.1//EN" "http://www.w3.org/Graphics/SVG/1.1/DTD/svg11.dtd">
<svg xmlns="http://www.w3.org/2000/svg" version="1.1" width="101px" height="122px" style="shape-rendering:geometricPrecision; text-rendering:geometricPrecision; image-rendering:optimizeQuality; fill-rule:evenodd; clip-rule:evenodd" xmlns:xlink="http://www.w3.org/1999/xlink">
<g><path style="opacity:0.556" fill="#7e9fcb" d="M 64.5,57.5 C 64.8195,52.6367 64.4861,47.97 63.5,43.5C 63.1676,30.8158 63.5009,18.1492 64.5,5.5C 65.8271,22.9954 65.8271,40.3287 64.5,57.5 Z"/></g>
<g><path style="opacity:0.985" fill="#5967af" d="M 17.5,11.5 C 19.0775,28.5128 20.2442,45.8462 21,63.5C 26.5994,73.2619 34.7661,79.9286 45.5,83.5C 51.4897,80.8403 57.1564,77.6736 62.5,74C 65.6135,70.9402 68.1135,67.4402 70,63.5C 71.2849,48.5676 71.9516,33.5676 72,18.5C 72.3333,16.1667 72.6667,13.8333 73,11.5C 73.3333,11.8333 73.6667,12.1667 74,12.5C 74.9819,33.3911 74.4819,54.2244 72.5,75C 71.8993,76.605 70.8993,77.9384 69.5,79C 62.1667,83.3333 54.8333,87.6667 47.5,92C 43.6596,91.5996 39.9929,90.2662 36.5,88C 31.1667,84.6667 25.8333,81.3333 20.5,78C 19.8742,77.2496 19.3742,76.4162 19,75.5C 17.6534,58.7315 16.8201,41.8981 16.5,25C 16.5279,20.4197 16.8612,15.9197 17.5,11.5 Z"/></g>
<g><path style="opacity:0.962" fill="#6186be" d="M 63.5,43.5 C 64.4861,47.97 64.8195,52.6367 64.5,57.5C 64.6989,60.941 64.1989,64.2744 63,67.5C 57.588,71.7919 51.7547,75.4586 45.5,78.5C 39.8685,75.3653 34.3685,72.032 29,68.5C 26.9595,63.0525 25.9595,57.3859 26,51.5C 25.0182,36.0142 25.3516,20.6808 27,5.5C 27.1628,20.8617 27.8295,36.195 29,51.5C 31.2924,61.7929 37.459,67.9596 47.5,70C 58.2824,64.6236 63.6157,55.7903 63.5,43.5 Z"/></g>
<g><path style="opacity:0.994" fill="#4d48a1" d="M 80.5,33.5 C 81.1667,28.5 81.8333,23.5 82.5,18.5C 83.1661,23.8229 83.4994,29.3229 83.5,35C 83.2983,51.5701 82.465,68.0701 81,84.5C 78.7177,87.5683 75.8844,90.0683 72.5,92C 63.4143,97.2933 54.2477,102.46 45,107.5C 36.9158,102.541 28.7491,97.7074 20.5,93C 16.4629,90.7443 12.9629,87.911 10,84.5C 8.36561,62.2304 8.03228,39.897 9,17.5C 9.66667,16.1667 10.3333,16.1667 11,17.5C 11.3333,36.1667 11.6667,54.8333 12,73.5C 13.3999,76.9024 15.5665,79.7357 18.5,82C 27.093,87.2143 35.9263,92.0476 45,96.5C 52.9377,92.8556 60.771,89.0223 68.5,85C 72.0313,82.499 75.198,79.6657 78,76.5C 79.6268,62.2689 80.4601,47.9356 80.5,33.5 Z"/></g>
<g><path style="opacity:0.996" fill="#403193" d="M 46.5,121.5 C 45.8333,121.5 45.1667,121.5 44.5,121.5C 31.5635,113.692 18.5635,105.859 5.5,98C 2.43228,95.79 0.43228,92.9567 -0.5,89.5C -0.5,67.5 -0.5,45.5 -0.5,23.5C -0.166667,23.5 0.166667,23.5 0.5,23.5C 1.16667,28.1667 1.83333,32.8333 2.5,37.5C 2.56575,54.9303 3.39908,72.2637 5,89.5C 17.7648,97.2979 31.2648,103.631 45.5,108.5C 58.5117,103.828 71.1784,98.3283 83.5,92C 84.6667,90.8333 85.8333,89.6667 87,88.5C 88.2744,67.8759 88.9411,47.2092 89,26.5C 89.3333,25.1667 89.6667,23.8333 90,22.5C 90.3333,22.8333 90.6667,23.1667 91,23.5C 91.6667,46.1667 91.6667,68.8333 91,91.5C 90.2078,93.5873 89.0412,95.4207 87.5,97C 73.9246,105.428 60.258,113.595 46.5,121.5 Z"/></g>
<g><path style="opacity:0.441" fill="#9d9fcd" d="M 82.5,18.5 C 81.8333,23.5 81.1667,28.5 80.5,33.5C 80.334,28.1563 80.5006,22.8229 81,17.5C 82.1068,16.2881 82.6068,16.6214 82.5,18.5 Z"/></g>
<g><path style="opacity:0.445" fill="#9390c5" d="M 0.5,23.5 C 0.559992,22.9569 0.893326,22.6236 1.5,22.5C 2.49415,27.456 2.82748,32.456 2.5,37.5C 1.83333,32.8333 1.16667,28.1667 0.5,23.5 Z"/></g>
<g><path style="opacity:0.954" fill="#80b4d5" d="M 34.5,0.5 C 36.0954,17.1728 37.2621,34.1728 38,51.5C 41.9939,59.6114 46.8272,60.2781 52.5,53.5C 53.154,51.8849 53.654,50.2182 54,48.5C 54.9995,32.5147 55.6662,16.5147 56,0.5C 56.6667,17.1667 56.6667,33.8333 56,50.5C 55.7683,57.5711 52.2683,62.2378 45.5,64.5C 40.8829,62.9565 37.7162,59.9565 36,55.5C 34.6311,37.1981 34.1311,18.8647 34.5,0.5 Z"/></g>
</svg>
